<svg width="1280" height="720" viewBox="0 0 1280 720" fill="none" xmlns="http://www.w3.org/2000/svg" role="img" aria-labelledby="title desc">
  <title id="title">ClassGrab popup preview</title>
  <desc id="desc">A stylized preview of ClassGrab running on a Google Classroom page.</desc>
  <rect width="1280" height="720" fill="#f8fafc"/>
  <rect width="1280" height="72" fill="#1f2937"/>
  <rect x="98" y="18" width="520" height="36" rx="18" fill="#111827"/>
  <text x="124" y="42" fill="#f8fafc" font-family="Arial, sans-serif" font-size="16">classroom.google.com/u/0/c/example/details</text>
  <rect x="0" y="72" width="82" height="648" fill="#eef2f7"/>
  <circle cx="41" cy="132" r="16" fill="#64748b"/>
  <circle cx="41" cy="200" r="16" fill="#64748b"/>
  <circle cx="41" cy="268" r="16" fill="#64748b"/>
  <circle cx="41" cy="336" r="16" fill="#64748b"/>
  <text x="122" y="128" fill="#334155" font-family="Arial, sans-serif" font-size="28">Classroom</text>
  <text x="302" y="128" fill="#64748b" font-family="Arial, sans-serif" font-size="28">Course Materials</text>
  <circle cx="210" cy="218" r="24" fill="#ffedd5"/>
  <text x="252" y="232" fill="#111827" font-family="Arial, sans-serif" font-size="44">Assignment resources</text>
  <text x="252" y="274" fill="#475569" font-family="Arial, sans-serif" font-size="20">Downloadable handouts and starter code</text>
  <rect x="252" y="332" width="404" height="86" rx="14" fill="#ffffff" stroke="#cbd5e1"/>
  <text x="282" y="382" fill="#111827" font-family="Arial, sans-serif" font-size="22" font-weight="700">worksheet.pdf</text>
  <text x="282" y="408" fill="#64748b" font-family="Arial, sans-serif" font-size="16">PDF</text>
  <rect x="252" y="438" width="404" height="86" rx="14" fill="#ffffff" stroke="#cbd5e1"/>
  <text x="282" y="488" fill="#111827" font-family="Arial, sans-serif" font-size="22" font-weight="700">starter_code.py</text>
  <text x="282" y="514" fill="#64748b" font-family="Arial, sans-serif" font-size="16">Python</text>
  <rect x="736" y="110" width="410" height="326" fill="#111827" stroke="#334155" stroke-width="2"/>
  <rect x="736" y="110" width="410" height="326" fill="url(#shadow)" opacity="0.4"/>
  <rect x="760" y="136" width="40" height="40" rx="10" fill="#312e81"/>
  <path d="M780 146v20m0 0-8-8m8 8 8-8" stroke="#a5b4fc" stroke-width="3" stroke-linecap="round" stroke-linejoin="round"/>
  <text x="814" y="164" fill="#f8fafc" font-family="Arial, sans-serif" font-size="24" font-weight="700">ClassGrab</text>
  <text x="814" y="188" fill="#94a3b8" font-family="Arial, sans-serif" font-size="14">v1.0.1</text>
  <line x1="760" y1="216" x2="1122" y2="216" stroke="#243044"/>
  <text x="760" y="250" fill="#f8fafc" font-family="Arial, sans-serif" font-size="20" font-weight="700">Available Files</text>
  <rect x="1060" y="232" width="22" height="22" rx="6" fill="#6366f1"/>
  <path d="m1066 243 4 4 8-10" stroke="white" stroke-width="2.5" stroke-linecap="round" stroke-linejoin="round"/>
  <text x="1090" y="249" fill="#f8fafc" font-family="Arial, sans-serif" font-size="18">Select All</text>
  <rect x="760" y="270" width="362" height="58" rx="12" fill="#0f172a" stroke="#243044"/>
  <rect x="776" y="286" width="26" height="26" rx="6" fill="#6366f1"/>
  <path d="m782 299 5 5 10-12" stroke="white" stroke-width="2.5" stroke-linecap="round" stroke-linejoin="round"/>
  <rect x="818" y="281" width="42" height="36" rx="8" fill="#991b1b"/>
  <text x="827" y="305" fill="#fecaca" font-family="Arial, sans-serif" font-size="13" font-weight="700">PDF</text>
  <text x="876" y="306" fill="#f8fafc" font-family="Arial, sans-serif" font-size="18" font-weight="700">worksheet.pdf</text>
  <rect x="760" y="342" width="362" height="58" rx="12" fill="#0f172a" stroke="#243044"/>
  <rect x="776" y="358" width="26" height="26" rx="6" fill="#6366f1"/>
  <path d="m782 371 5 5 10-12" stroke="white" stroke-width="2.5" stroke-linecap="round" stroke-linejoin="round"/>
  <rect x="818" y="353" width="42" height="36" rx="8" fill="#78350f"/>
  <text x="829" y="377" fill="#fde68a" font-family="Arial, sans-serif" font-size="13" font-weight="700">PY</text>
  <text x="876" y="377" fill="#f8fafc" font-family="Arial, sans-serif" font-size="18" font-weight="700">starter_code.py</text>
  <rect x="760" y="416" width="172" height="48" rx="12" fill="#4f46e5"/>
  <text x="806" y="446" fill="white" font-family="Arial, sans-serif" font-size="17" font-weight="700">Download Selected</text>
  <rect x="950" y="416" width="172" height="48" rx="12" fill="#10b981"/>
  <text x="1002" y="446" fill="white" font-family="Arial, sans-serif" font-size="17" font-weight="700">Download All</text>
  <defs>
    <linearGradient id="shadow" x1="736" y1="110" x2="1146" y2="436" gradientUnits="userSpaceOnUse">
      <stop stop-color="#1e1b4b"/>
      <stop offset="1" stop-color="#064e3b"/>
    </linearGradient>
  </defs>
</svg>
